<svg xmlns="http://www.w3.org/2000/svg" version="1.1" xmlns:xlink="http://www.w3.org/1999/xlink" xmlns:svgjs="http://svgjs.com/svgjs" width="512" height="512" x="0" y="0" viewBox="0 0 32 32" style="enable-background:new 0 0 512 512" xml:space="preserve" class=""><g><g fill="#000"><path d="M14 15a1 1 0 1 0-2 0v2a1 1 0 1 0 2 0z" fill="#efefef" data-original="#000000" class=""></path><path fill-rule="evenodd" d="M16.655 1.245A1 1 0 0 1 17 2v1h7a3 3 0 0 1 3 3v2a1 1 0 1 1-2 0V6a1 1 0 0 0-1-1h-7v22h7a1 1 0 0 0 1-1v-2a1 1 0 1 1 2 0v2a3 3 0 0 1-3 3h-7v1a1 1 0 0 1-1.141.99L3.576 29.235A3 3 0 0 1 1 26.265V5.735a3 3 0 0 1 2.576-2.97L15.859 1.01a1 1 0 0 1 .796.235zM15 3.153v25.694L3.859 27.255a1 1 0 0 1-.859-.99V5.735a1 1 0 0 1 .859-.99z" clip-rule="evenodd" fill="#efefef" data-original="#000000" class=""></path><path d="M20 15a1 1 0 1 0 0 2h7.586l-2.293 2.293a1 1 0 0 0 1.414 1.414l3.998-3.998a.997.997 0 0 0 .002-1.416l-4-4a1 1 0 0 0-1.414 1.414L27.586 15z" fill="#efefef" data-original="#000000" class=""></path></g></g></svg>