<svg xmlns="http://www.w3.org/2000/svg" version="1.1" xmlns:xlink="http://www.w3.org/1999/xlink" xmlns:svgjs="http://svgjs.com/svgjs" width="512" height="512" x="0" y="0" viewBox="0 0 256 256" style="enable-background:new 0 0 512 512" xml:space="preserve" class=""><g><g id="Layer_2"><g><path d="m227.2 71.787h-198.4c-13.697 0-24.8-11.103-24.8-24.8 0-13.697 11.103-24.8 24.8-24.8h198.4c13.697 0 24.8 11.103 24.8 24.8 0 13.696-11.103 24.8-24.8 24.8z" fill="#715df2" data-original="#76c1e5" class=""></path><path d="m227.2 64.287h-186.4c-1.381 0-2.5-1.119-2.5-2.5s1.119-2.5 2.5-2.5h186.4c6.782 0 12.3-5.518 12.3-12.3 0-1.381 1.119-2.5 2.5-2.5s2.5 1.119 2.5 2.5c0 9.539-7.761 17.3-17.3 17.3zm-196.4 0h-2c-1.381 0-2.5-1.119-2.5-2.5s1.119-2.5 2.5-2.5h2c1.381 0 2.5 1.119 2.5 2.5s-1.119 2.5-2.5 2.5z" fill="#efefef" data-original="#c6e4fc" class=""></path><path d="m227.2 152.8h-198.4c-13.697 0-24.8-11.103-24.8-24.8 0-13.697 11.103-24.8 24.8-24.8h198.4c13.697 0 24.8 11.103 24.8 24.8 0 13.697-11.103 24.8-24.8 24.8z" fill="#715df2" data-original="#76c1e5" class=""></path><path d="m227.2 145.3h-186.4c-1.381 0-2.5-1.119-2.5-2.5s1.119-2.5 2.5-2.5h186.4c6.782 0 12.3-5.518 12.3-12.3 0-1.381 1.119-2.5 2.5-2.5s2.5 1.119 2.5 2.5c0 9.539-7.761 17.3-17.3 17.3zm-196.4 0h-2c-1.381 0-2.5-1.119-2.5-2.5s1.119-2.5 2.5-2.5h2c1.381 0 2.5 1.119 2.5 2.5s-1.119 2.5-2.5 2.5z" fill="#efefef" data-original="#c6e4fc" class=""></path><path d="m227.2 233.813h-198.4c-13.697 0-24.8-11.103-24.8-24.8 0-13.697 11.103-24.8 24.8-24.8h198.4c13.697 0 24.8 11.103 24.8 24.8 0 13.697-11.103 24.8-24.8 24.8z" fill="#715df2" data-original="#76c1e5" class=""></path><path d="m227.2 226.313h-186.4c-1.381 0-2.5-1.119-2.5-2.5s1.119-2.5 2.5-2.5h186.4c6.782 0 12.3-5.518 12.3-12.3 0-1.381 1.119-2.5 2.5-2.5s2.5 1.119 2.5 2.5c0 9.54-7.761 17.3-17.3 17.3zm-196.4 0h-2c-1.381 0-2.5-1.119-2.5-2.5s1.119-2.5 2.5-2.5h2c1.381 0 2.5 1.119 2.5 2.5s-1.119 2.5-2.5 2.5z" fill="#efefef" data-original="#c6e4fc" class=""></path><path d="m28.8 74.29h108.4c1.38 0 2.5-1.13 2.5-2.5 0-1.38-1.11-2.49-2.49-2.5 0 0 0 0-.01 0h-108.4c-12.27-.02-22.28-10.03-22.3-22.3.02-12.28 10.03-22.28 22.3-22.3h198.4c12.27.02 22.279 10.02 22.3 22.3 0 12.221-9.92 22.3-22.3 22.3h-70c-1.381 0-2.5 1.12-2.5 2.5 0 1.37 1.119 2.5 2.5 2.5h70c15.157 0 27.3-12.329 27.3-27.3 0-15.079-12.195-27.3-27.3-27.3h-198.4c-15.08 0-27.3 12.194-27.3 27.3 0 15.083 12.214 27.3 27.3 27.3z" fill="#000000" data-original="#000000" class=""></path><circle cx="147.2" cy="71.79" r="2.5" fill="#000000" data-original="#000000" class=""></circle><circle cx="172.46" cy="103.2" r="2.5" fill="#000000" data-original="#000000" class=""></circle><path d="m28.8 155.3h198.4c15.083 0 27.3-12.214 27.3-27.3 0-15.083-12.214-27.3-27.3-27.3h-44.74c-1.38 0-2.5 1.12-2.5 2.5s1.12 2.5 2.5 2.5h44.74c12.27.02 22.279 10.03 22.3 22.3-.021 12.27-10.03 22.28-22.3 22.3h-198.4c-12.27-.02-22.28-10.03-22.3-22.3.02-12.27 10.03-22.28 22.3-22.3h133.66c1.38 0 2.5-1.12 2.5-2.5s-1.12-2.5-2.5-2.5h-133.66c-15.084 0-27.3 12.215-27.3 27.3 0 15.084 12.214 27.3 27.3 27.3z" fill="#000000" data-original="#000000" class=""></path><path d="m28.8 236.31h198.4c15.078 0 27.3-12.193 27.3-27.3 0-15.047-12.183-27.3-27.3-27.3h-164.74c-1.38 0-2.5 1.12-2.5 2.5s1.12 2.5 2.5 2.5h.01 164.73c12.27.03 22.279 10.03 22.3 22.3-.021 12.28-10.03 22.28-22.3 22.3h-198.4c-12.27-.02-22.28-10.02-22.3-22.3.02-12.27 10.03-22.27 22.3-22.3h13.66c1.37 0 2.5-1.12 2.5-2.5s-1.13-2.5-2.5-2.5h-13.66c-15.11 0-27.3 12.245-27.3 27.3 0 15.077 12.193 27.3 27.3 27.3z" fill="#000000" data-original="#000000" class=""></path><circle cx="52.46" cy="184.21" r="2.5" fill="#000000" data-original="#000000" class=""></circle></g></g></g></svg>