<svg xmlns="http://www.w3.org/2000/svg" version="1.1" xmlns:xlink="http://www.w3.org/1999/xlink" xmlns:svgjs="http://svgjs.com/svgjs" width="512" height="512" x="0" y="0" viewBox="0 0 682.667 682.667" style="enable-background:new 0 0 512 512" xml:space="preserve" class=""><g><defs><clipPath id="a" clipPathUnits="userSpaceOnUse"><path d="M0 512h512V0H0Z" fill="#000000" data-original="#000000" class=""></path></clipPath></defs><path d="M0 0h-260.736v194.024l130.368 80.995L0 194.024Z" style="fill-opacity:1;fill-rule:nonzero;stroke:none" transform="matrix(1.33333 0 0 -1.33333 515.142 556.724)" fill="#e9f1ff" data-original="#e9f1ff" class=""></path><path d="m0 0-20-12.426L90.368-80.995v-194.024h40v194.024z" style="fill-opacity:1;fill-rule:nonzero;stroke:none" transform="matrix(1.33333 0 0 -1.33333 341.318 190.032)" fill="#dde9ff" data-original="#dde9ff" class=""></path><g clip-path="url(#a)" transform="matrix(1.33333 0 0 -1.33333 0 682.667)"><path d="m0 0-158.376-97.854c-8.797-5.468-20.406-1.924-24.636 7.521-3.486 7.783-.681 16.94 6.569 21.446L-7.041 35.82c4.693 2.68 9.388 2.68 14.082 0L176.442-68.887c7.25-4.506 10.055-13.663 6.57-21.446-4.23-9.445-15.839-12.989-24.637-7.521z" style="fill-opacity:1;fill-rule:nonzero;stroke:none" transform="translate(255.988 361.59)" fill="#715df2" data-original="#ff66f8" class=""></path><path d="M215.166 202.506h81.645V94.457h-81.645z" style="fill-opacity:1;fill-rule:nonzero;stroke:none" fill="#715df2" data-original="#ff66f8" class=""></path><path d="M0 0c10.522 0 19.083 8.561 19.083 19.083 0 10.522-8.561 19.084-19.083 19.084-10.522 0-19.083-8.562-19.083-19.084S-10.522 0 0 0" style="fill-opacity:1;fill-rule:nonzero;stroke:none" transform="translate(353 466.334)" fill="#efefef" data-original="#ffe53a" class=""></path><path d="M0 0c-10.522 0-19.083 8.561-19.083 19.083 0 10.522 8.561 19.084 19.083 19.084 10.522 0 19.083-8.562 19.083-19.084S10.522 0 0 0" style="fill-opacity:1;fill-rule:nonzero;stroke:none" transform="translate(159 466.334)" fill="#efefef" data-original="#ffe53a" class=""></path><path d="M0 0c-10.522 0-19.083 8.561-19.083 19.083 0 10.523 8.561 19.084 19.083 19.084 10.522 0 19.084-8.561 19.084-19.084C19.084 8.561 10.522 0 0 0" style="fill-opacity:1;fill-rule:nonzero;stroke:none" transform="translate(26.583 428.814)" fill="#efefef" data-original="#90ef96" class=""></path><path d="M0 0c-10.522 0-19.084 8.561-19.084 19.083 0 10.523 8.562 19.084 19.084 19.084s19.083-8.561 19.083-19.084C19.083 8.561 10.522 0 0 0" style="fill-opacity:1;fill-rule:nonzero;stroke:none" transform="translate(485.417 428.814)" fill="#efefef" data-original="#90ef96" class=""></path><path d="M0 0c10.522 0 19.083 8.561 19.083 19.083 0 10.523-8.561 19.084-19.083 19.084-10.522 0-19.083-8.561-19.083-19.084C-19.083 8.561-10.522 0 0 0" style="fill-opacity:1;fill-rule:nonzero;stroke:none" transform="translate(114.008 7.5)" fill="#efefef" data-original="#90ef96" class=""></path><path d="M0 0c-10.522 0-19.083 8.561-19.083 19.083 0 10.523 8.561 19.084 19.083 19.084 10.522 0 19.083-8.561 19.083-19.084C19.083 8.561 10.522 0 0 0" style="fill-opacity:1;fill-rule:nonzero;stroke:none" transform="translate(397.992 7.5)" fill="#efefef" data-original="#90ef96" class=""></path><path d="M0 0c-10.522 0-19.084 8.561-19.084 19.083 0 10.523 8.562 19.084 19.084 19.084s19.083-8.561 19.083-19.084C19.083 8.561 10.522 0 0 0" style="fill-opacity:1;fill-rule:nonzero;stroke:none" transform="translate(485.417 47.5)" fill="#efefef" data-original="#ffe53a" class=""></path><path d="M0 0c-10.522 0-19.084 8.561-19.084 19.083 0 10.522 8.562 19.084 19.084 19.084s19.083-8.562 19.083-19.084S10.522 0 0 0" style="fill-opacity:1;fill-rule:nonzero;stroke:none" transform="translate(485.417 166.583)" fill="#efefef" data-original="#ffe53a" class=""></path><path d="M0 0c10.522 0 19.084 8.561 19.084 19.083 0 10.523-8.562 19.084-19.084 19.084s-19.083-8.561-19.083-19.084C-19.083 8.561-10.522 0 0 0" style="fill-opacity:1;fill-rule:nonzero;stroke:none" transform="translate(26.583 47.5)" fill="#efefef" data-original="#ffe53a" class=""></path><path d="M0 0c10.522 0 19.084 8.561 19.084 19.083 0 10.522-8.562 19.084-19.084 19.084s-19.083-8.562-19.083-19.084S-10.522 0 0 0" style="fill-opacity:1;fill-rule:nonzero;stroke:none" transform="translate(26.583 166.583)" fill="#efefef" data-original="#ffe53a" class=""></path><path d="m0 0-61.081 37.948-130.369-80.994v-186.139H69.287v186.139L33.978-21.109" style="stroke-width:15;stroke-linecap:round;stroke-linejoin:round;stroke-miterlimit:10;stroke-dasharray:none;stroke-opacity:1" transform="translate(317.07 323.642)" fill="none" stroke="#000000" stroke-width="15" stroke-linecap="round" stroke-linejoin="round" stroke-miterlimit="10" stroke-dasharray="none" stroke-opacity="" data-original="#000000" class=""></path><path d="m0 0 63.164-39.027c8.798-5.468 20.407-1.925 24.637 7.52 3.486 7.783.68 16.941-6.57 21.447L-88.17 94.647c-4.694 2.68-9.389 2.68-14.082 0L-271.654-10.06c-7.25-4.506-10.055-13.664-6.569-21.447 4.23-9.445 15.839-12.988 24.637-7.52l158.375 97.853 61.18-37.8" style="stroke-width:15;stroke-linecap:round;stroke-linejoin:round;stroke-miterlimit:10;stroke-dasharray:none;stroke-opacity:1" transform="translate(351.2 302.764)" fill="none" stroke="#000000" stroke-width="15" stroke-linecap="round" stroke-linejoin="round" stroke-miterlimit="10" stroke-dasharray="none" stroke-opacity="" data-original="#000000" class=""></path><path d="M0 0v-34.585h81.645V73.464H0V39.898" style="stroke-width:15;stroke-linecap:round;stroke-linejoin:round;stroke-miterlimit:10;stroke-dasharray:none;stroke-opacity:1" transform="translate(215.166 129.042)" fill="none" stroke="#000000" stroke-width="15" stroke-linecap="round" stroke-linejoin="round" stroke-miterlimit="10" stroke-dasharray="none" stroke-opacity="" data-original="#000000" class=""></path><path d="M0 0v37.173c0 5.522 4.477 10 10 10h41.796c5.522 0 10 4.477 10 10V85.67" style="stroke-width:15;stroke-linecap:round;stroke-linejoin:round;stroke-miterlimit:10;stroke-dasharray:none;stroke-opacity:1" transform="translate(291.204 379.996)" fill="none" stroke="#000000" stroke-width="15" stroke-linecap="round" stroke-linejoin="round" stroke-miterlimit="10" stroke-dasharray="none" stroke-opacity="" data-original="#000000" class=""></path><path d="M0 0c10.522 0 19.083 8.561 19.083 19.083 0 10.522-8.561 19.084-19.083 19.084-10.522 0-19.083-8.562-19.083-19.084S-10.522 0 0 0Z" style="stroke-width:15;stroke-linecap:round;stroke-linejoin:round;stroke-miterlimit:10;stroke-dasharray:none;stroke-opacity:1" transform="translate(353 466.334)" fill="none" stroke="#000000" stroke-width="15" stroke-linecap="round" stroke-linejoin="round" stroke-miterlimit="10" stroke-dasharray="none" stroke-opacity="" data-original="#000000" class=""></path><path d="M0 0h65.948c5.524 0 10 4.477 10 10v77.798c0 5.523 4.478 10 10 10h37.804" style="stroke-width:15;stroke-linecap:round;stroke-linejoin:round;stroke-miterlimit:10;stroke-dasharray:none;stroke-opacity:1" transform="translate(342.054 348.544)" fill="none" stroke="#000000" stroke-width="15" stroke-linecap="round" stroke-linejoin="round" stroke-miterlimit="10" stroke-dasharray="none" stroke-opacity="" data-original="#000000" class=""></path><path d="M0 0v37.173c0 5.522-4.477 10-10 10h-41.796c-5.522 0-10 4.477-10 10V85.67" style="stroke-width:15;stroke-linecap:round;stroke-linejoin:round;stroke-miterlimit:10;stroke-dasharray:none;stroke-opacity:1" transform="translate(220.796 379.996)" fill="none" stroke="#000000" stroke-width="15" stroke-linecap="round" stroke-linejoin="round" stroke-miterlimit="10" stroke-dasharray="none" stroke-opacity="" data-original="#000000" class=""></path><path d="M0 0c-10.522 0-19.083 8.561-19.083 19.083 0 10.522 8.561 19.084 19.083 19.084 10.522 0 19.083-8.562 19.083-19.084S10.522 0 0 0Z" style="stroke-width:15;stroke-linecap:round;stroke-linejoin:round;stroke-miterlimit:10;stroke-dasharray:none;stroke-opacity:1" transform="translate(159 466.334)" fill="none" stroke="#000000" stroke-width="15" stroke-linecap="round" stroke-linejoin="round" stroke-miterlimit="10" stroke-dasharray="none" stroke-opacity="" data-original="#000000" class=""></path><path d="M0 0h-65.948c-5.524 0-10 4.477-10 10v77.798c0 5.523-4.478 10-10 10h-37.804" style="stroke-width:15;stroke-linecap:round;stroke-linejoin:round;stroke-miterlimit:10;stroke-dasharray:none;stroke-opacity:1" transform="translate(169.946 348.544)" fill="none" stroke="#000000" stroke-width="15" stroke-linecap="round" stroke-linejoin="round" stroke-miterlimit="10" stroke-dasharray="none" stroke-opacity="" data-original="#000000" class=""></path><path d="M0 0c-10.522 0-19.083 8.561-19.083 19.083 0 10.523 8.561 19.084 19.083 19.084 10.522 0 19.084-8.561 19.084-19.084C19.084 8.561 10.522 0 0 0Z" style="stroke-width:15;stroke-linecap:round;stroke-linejoin:round;stroke-miterlimit:10;stroke-dasharray:none;stroke-opacity:1" transform="translate(26.583 428.814)" fill="none" stroke="#000000" stroke-width="15" stroke-linecap="round" stroke-linejoin="round" stroke-miterlimit="10" stroke-dasharray="none" stroke-opacity="" data-original="#000000" class=""></path><path d="M0 0c-10.522 0-19.084 8.561-19.084 19.083 0 10.523 8.562 19.084 19.084 19.084s19.083-8.561 19.083-19.084C19.083 8.561 10.522 0 0 0Z" style="stroke-width:15;stroke-linecap:round;stroke-linejoin:round;stroke-miterlimit:10;stroke-dasharray:none;stroke-opacity:1" transform="translate(485.417 428.814)" fill="none" stroke="#000000" stroke-width="15" stroke-linecap="round" stroke-linejoin="round" stroke-miterlimit="10" stroke-dasharray="none" stroke-opacity="" data-original="#000000" class=""></path><path d="M0 0c10.522 0 19.083 8.561 19.083 19.083 0 10.523-8.561 19.084-19.083 19.084-10.522 0-19.083-8.561-19.083-19.084C-19.083 8.561-10.522 0 0 0Z" style="stroke-width:15;stroke-linecap:round;stroke-linejoin:round;stroke-miterlimit:10;stroke-dasharray:none;stroke-opacity:1" transform="translate(114.008 7.5)" fill="none" stroke="#000000" stroke-width="15" stroke-linecap="round" stroke-linejoin="round" stroke-miterlimit="10" stroke-dasharray="none" stroke-opacity="" data-original="#000000" class=""></path><path d="M0 0v-57.874c0-5.522-4.477-10-10-10h-42.417" style="stroke-width:15;stroke-linecap:round;stroke-linejoin:round;stroke-miterlimit:10;stroke-dasharray:none;stroke-opacity:1" transform="translate(185.508 94.457)" fill="none" stroke="#000000" stroke-width="15" stroke-linecap="round" stroke-linejoin="round" stroke-miterlimit="10" stroke-dasharray="none" stroke-opacity="" data-original="#000000" class=""></path><path d="M0 0c-10.522 0-19.083 8.561-19.083 19.083 0 10.523 8.561 19.084 19.083 19.084 10.522 0 19.083-8.561 19.083-19.084C19.083 8.561 10.522 0 0 0Z" style="stroke-width:15;stroke-linecap:round;stroke-linejoin:round;stroke-miterlimit:10;stroke-dasharray:none;stroke-opacity:1" transform="translate(397.992 7.5)" fill="none" stroke="#000000" stroke-width="15" stroke-linecap="round" stroke-linejoin="round" stroke-miterlimit="10" stroke-dasharray="none" stroke-opacity="" data-original="#000000" class=""></path><path d="M0 0v-57.874c0-5.522 4.477-10 10-10h42.417" style="stroke-width:15;stroke-linecap:round;stroke-linejoin:round;stroke-miterlimit:10;stroke-dasharray:none;stroke-opacity:1" transform="translate(326.492 94.457)" fill="none" stroke="#000000" stroke-width="15" stroke-linecap="round" stroke-linejoin="round" stroke-miterlimit="10" stroke-dasharray="none" stroke-opacity="" data-original="#000000" class=""></path><path d="M0 0h30.135c5.522 0 10-4.477 10-10v-66.299c0-5.523 4.476-10 10-10h38.902c5.523 0 10-4.477 10-10v-37.142" style="stroke-width:15;stroke-linecap:round;stroke-linejoin:round;stroke-miterlimit:10;stroke-dasharray:none;stroke-opacity:1" transform="translate(386.38 219.107)" fill="none" stroke="#000000" stroke-width="15" stroke-linecap="round" stroke-linejoin="round" stroke-miterlimit="10" stroke-dasharray="none" stroke-opacity="" data-original="#000000" class=""></path><path d="M0 0c-10.522 0-19.084 8.561-19.084 19.083 0 10.523 8.562 19.084 19.084 19.084s19.083-8.561 19.083-19.084C19.083 8.561 10.522 0 0 0Z" style="stroke-width:15;stroke-linecap:round;stroke-linejoin:round;stroke-miterlimit:10;stroke-dasharray:none;stroke-opacity:1" transform="translate(485.417 47.5)" fill="none" stroke="#000000" stroke-width="15" stroke-linecap="round" stroke-linejoin="round" stroke-miterlimit="10" stroke-dasharray="none" stroke-opacity="" data-original="#000000" class=""></path><path d="M0 0c-10.522 0-19.084 8.561-19.084 19.083 0 10.522 8.562 19.084 19.084 19.084s19.083-8.562 19.083-19.084S10.522 0 0 0Z" style="stroke-width:15;stroke-linecap:round;stroke-linejoin:round;stroke-miterlimit:10;stroke-dasharray:none;stroke-opacity:1" transform="translate(485.417 166.583)" fill="none" stroke="#000000" stroke-width="15" stroke-linecap="round" stroke-linejoin="round" stroke-miterlimit="10" stroke-dasharray="none" stroke-opacity="" data-original="#000000" class=""></path><path d="M0 0h39.818" style="stroke-width:15;stroke-linecap:round;stroke-linejoin:round;stroke-miterlimit:10;stroke-dasharray:none;stroke-opacity:1" transform="translate(426.515 185.667)" fill="none" stroke="#000000" stroke-width="15" stroke-linecap="round" stroke-linejoin="round" stroke-miterlimit="10" stroke-dasharray="none" stroke-opacity="" data-original="#000000" class=""></path><path d="M0 0h-30.135c-5.522 0-10-4.477-10-10v-66.299c0-5.523-4.476-10-10-10h-38.902c-5.523 0-10-4.477-10-10v-37.142" style="stroke-width:15;stroke-linecap:round;stroke-linejoin:round;stroke-miterlimit:10;stroke-dasharray:none;stroke-opacity:1" transform="translate(125.62 219.107)" fill="none" stroke="#000000" stroke-width="15" stroke-linecap="round" stroke-linejoin="round" stroke-miterlimit="10" stroke-dasharray="none" stroke-opacity="" data-original="#000000" class=""></path><path d="M0 0c10.522 0 19.084 8.561 19.084 19.083 0 10.523-8.562 19.084-19.084 19.084s-19.083-8.561-19.083-19.084C-19.083 8.561-10.522 0 0 0Z" style="stroke-width:15;stroke-linecap:round;stroke-linejoin:round;stroke-miterlimit:10;stroke-dasharray:none;stroke-opacity:1" transform="translate(26.583 47.5)" fill="none" stroke="#000000" stroke-width="15" stroke-linecap="round" stroke-linejoin="round" stroke-miterlimit="10" stroke-dasharray="none" stroke-opacity="" data-original="#000000" class=""></path><path d="M0 0c10.522 0 19.084 8.561 19.084 19.083 0 10.522-8.562 19.084-19.084 19.084s-19.083-8.562-19.083-19.084S-10.522 0 0 0Z" style="stroke-width:15;stroke-linecap:round;stroke-linejoin:round;stroke-miterlimit:10;stroke-dasharray:none;stroke-opacity:1" transform="translate(26.583 166.583)" fill="none" stroke="#000000" stroke-width="15" stroke-linecap="round" stroke-linejoin="round" stroke-miterlimit="10" stroke-dasharray="none" stroke-opacity="" data-original="#000000" class=""></path><path d="M0 0h-38.818" style="stroke-width:15;stroke-linecap:round;stroke-linejoin:round;stroke-miterlimit:10;stroke-dasharray:none;stroke-opacity:1" transform="translate(85.485 185.667)" fill="none" stroke="#000000" stroke-width="15" stroke-linecap="round" stroke-linejoin="round" stroke-miterlimit="10" stroke-dasharray="none" stroke-opacity="" data-original="#000000" class=""></path></g></g></svg>