<svg height="512pt" viewBox="0 -96 512.57789 512" width="512pt" xmlns="http://www.w3.org/2000/svg"><path d="m170.667969 74.953125h21.332031v245.335937h-21.332031zm0 0"/><path d="m128 128.289062h21.332031v192h-21.332031zm0 0"/><path d="m85.332031 117.621094h21.335938v202.667968h-21.335938zm0 0"/><path d="m42.667969 160.289062h21.332031v149.332032h-21.332031zm0 0"/><path d="m0 202.953125h21.332031v85.335937h-21.332031zm0 0"/><path d="m416 320.289062h-202.667969v-280.136718l3.066407-3.066406c34.886718-35.589844 87.839843-46.535157 133.976562-27.691407 46.136719 18.839844 76.292969 63.722657 76.292969 113.558594v5.867187c50.882812 5.378907 88.609375 49.71875 85.761719 100.808594-2.847657 51.089844-45.261719 90.964844-96.429688 90.660156zm-181.332031-21.335937h181.332031c41.238281 0 74.667969-33.429687 74.667969-74.664063 0-41.238281-33.429688-74.667968-74.667969-74.667968h-10.667969v-26.667969c-.011719-40.390625-24.011719-76.917969-61.082031-92.960937-37.070312-16.042969-80.125-8.542969-109.582031 19.09375zm0 0"/></svg>