<svg id="Icon" enable-background="new 0 0 100 100" height="512" viewBox="0 0 100 100" width="512" xmlns="http://www.w3.org/2000/svg"><path id="Video_Camera_1_" d="m50 89c-39.52 0-48-3.36-48-39s8.48-39 48-39 48 3.36 48 39-8.48 39-48 39zm0-72c-38.467 0-42 2.776-42 33s3.533 33 42 33 42-2.776 42-33-3.533-33-42-33zm-9 54c-.485 0-.973-.117-1.415-.354-.976-.523-1.585-1.54-1.585-2.646v-36c0-1.106.609-2.123 1.585-2.646.971-.523 2.155-.466 3.079.149l27 18c.835.558 1.336 1.494 1.336 2.497s-.501 1.939-1.336 2.496l-27 18c-.502.334-1.082.504-1.664.504zm3-33.394v24.788l18.592-12.394z"/></svg>