<svg id="visual" viewBox="0 0 1500 900" width="1500" height="900" xmlns="http://www.w3.org/2000/svg" xmlns:xlink="http://www.w3.org/1999/xlink" version="1.1"><rect x="0" y="0" width="1500" height="900" fill="#001220"></rect><path d="M0 576L35.7 569C71.3 562 142.7 548 214.2 552.7C285.7 557.3 357.3 580.7 428.8 583.2C500.3 585.7 571.7 567.3 643 554C714.3 540.7 785.7 532.3 857 535.2C928.3 538 999.7 552 1071.2 548.7C1142.7 545.3 1214.3 524.7 1285.8 530.3C1357.3 536 1428.7 568 1464.3 584L1500 600L1500 901L1464.3 901C1428.7 901 1357.3 901 1285.8 901C1214.3 901 1142.7 901 1071.2 901C999.7 901 928.3 901 857 901C785.7 901 714.3 901 643 901C571.7 901 500.3 901 428.8 901C357.3 901 285.7 901 214.2 901C142.7 901 71.3 901 35.7 901L0 901Z" fill="#6d69fa"></path><path d="M0 649L35.7 637.3C71.3 625.7 142.7 602.3 214.2 584.5C285.7 566.7 357.3 554.3 428.8 547.5C500.3 540.7 571.7 539.3 643 549C714.3 558.7 785.7 579.3 857 583.3C928.3 587.3 999.7 574.7 1071.2 563.8C1142.7 553 1214.3 544 1285.8 540.3C1357.3 536.7 1428.7 538.3 1464.3 539.2L1500 540L1500 901L1464.3 901C1428.7 901 1357.3 901 1285.8 901C1214.3 901 1142.7 901 1071.2 901C999.7 901 928.3 901 857 901C785.7 901 714.3 901 643 901C571.7 901 500.3 901 428.8 901C357.3 901 285.7 901 214.2 901C142.7 901 71.3 901 35.7 901L0 901Z" fill="#6063f6"></path><path d="M0 677L35.7 687.5C71.3 698 142.7 719 214.2 721C285.7 723 357.3 706 428.8 687C500.3 668 571.7 647 643 633.5C714.3 620 785.7 614 857 621.7C928.3 629.3 999.7 650.7 1071.2 670.8C1142.7 691 1214.3 710 1285.8 720.8C1357.3 731.7 1428.7 734.3 1464.3 735.7L1500 737L1500 901L1464.3 901C1428.7 901 1357.3 901 1285.8 901C1214.3 901 1142.7 901 1071.2 901C999.7 901 928.3 901 857 901C785.7 901 714.3 901 643 901C571.7 901 500.3 901 428.8 901C357.3 901 285.7 901 214.2 901C142.7 901 71.3 901 35.7 901L0 901Z" fill="#515df2"></path><path d="M0 786L35.7 783.2C71.3 780.3 142.7 774.7 214.2 760.7C285.7 746.7 357.3 724.3 428.8 722.3C500.3 720.3 571.7 738.7 643 749C714.3 759.3 785.7 761.7 857 760.3C928.3 759 999.7 754 1071.2 748.2C1142.7 742.3 1214.3 735.7 1285.8 729.5C1357.3 723.3 1428.7 717.7 1464.3 714.8L1500 712L1500 901L1464.3 901C1428.7 901 1357.3 901 1285.8 901C1214.3 901 1142.7 901 1071.2 901C999.7 901 928.3 901 857 901C785.7 901 714.3 901 643 901C571.7 901 500.3 901 428.8 901C357.3 901 285.7 901 214.2 901C142.7 901 71.3 901 35.7 901L0 901Z" fill="#4057ee"></path><path d="M0 807L35.7 811.3C71.3 815.7 142.7 824.3 214.2 823.7C285.7 823 357.3 813 428.8 814.7C500.3 816.3 571.7 829.7 643 831.8C714.3 834 785.7 825 857 815C928.3 805 999.7 794 1071.2 786.7C1142.7 779.3 1214.3 775.7 1285.8 779.2C1357.3 782.7 1428.7 793.3 1464.3 798.7L1500 804L1500 901L1464.3 901C1428.7 901 1357.3 901 1285.8 901C1214.3 901 1142.7 901 1071.2 901C999.7 901 928.3 901 857 901C785.7 901 714.3 901 643 901C571.7 901 500.3 901 428.8 901C357.3 901 285.7 901 214.2 901C142.7 901 71.3 901 35.7 901L0 901Z" fill="#2851eb"></path></svg>