<svg id="visual" viewBox="0 0 900 450" width="900" height="450" xmlns="http://www.w3.org/2000/svg" xmlns:xlink="http://www.w3.org/1999/xlink" version="1.1"><rect x="0" y="0" width="900" height="450" fill="#002233"></rect><path d="M0 204L21.5 206.8C43 209.7 86 215.3 128.8 238.8C171.7 262.3 214.3 303.7 257.2 318.7C300 333.7 343 322.3 385.8 306C428.7 289.7 471.3 268.3 514.2 272.8C557 277.3 600 307.7 642.8 319C685.7 330.3 728.3 322.7 771.2 304.7C814 286.7 857 258.3 878.5 244.2L900 230L900 451L878.5 451C857 451 814 451 771.2 451C728.3 451 685.7 451 642.8 451C600 451 557 451 514.2 451C471.3 451 428.7 451 385.8 451C343 451 300 451 257.2 451C214.3 451 171.7 451 128.8 451C86 451 43 451 21.5 451L0 451Z" fill="#ffffff" stroke-linecap="round" stroke-linejoin="miter"></path></svg>