<svg id="visual" viewBox="0 0 1500 900" width="1500" height="900" xmlns="http://www.w3.org/2000/svg" xmlns:xlink="http://www.w3.org/1999/xlink" version="1.1"><rect width="1500" height="900" fill="#001829"></rect><g><g transform="translate(968 79)"><path d="M0 -126.7L109.7 -63.3L109.7 63.3L0 126.7L-109.7 63.3L-109.7 -63.3Z" fill="#297EA6"></path></g><g transform="translate(1146 267)"><path d="M0 -69L59.8 -34.5L59.8 34.5L0 69L-59.8 34.5L-59.8 -34.5Z" fill="#297EA6"></path></g><g transform="translate(241 864)"><path d="M0 -70L60.6 -35L60.6 35L0 70L-60.6 35L-60.6 -35Z" fill="#297EA6"></path></g><g transform="translate(700 440)"><path d="M0 -82L71 -41L71 41L0 82L-71 41L-71 -41Z" fill="#297EA6"></path></g><g transform="translate(1354 707)"><path d="M0 -76L65.8 -38L65.8 38L0 76L-65.8 38L-65.8 -38Z" fill="#297EA6"></path></g><g transform="translate(21 239)"><path d="M0 -100L86.6 -50L86.6 50L0 100L-86.6 50L-86.6 -50Z" fill="#297EA6"></path></g><g transform="translate(571 154)"><path d="M0 -102L88.3 -51L88.3 51L0 102L-88.3 51L-88.3 -51Z" fill="#297EA6"></path></g><g transform="translate(768 817)"><path d="M0 -112L97 -56L97 56L0 112L-97 56L-97 -56Z" fill="#297EA6"></path></g><g transform="translate(306 20)"><path d="M0 -111L96.1 -55.5L96.1 55.5L0 111L-96.1 55.5L-96.1 -55.5Z" fill="#297EA6"></path></g><g transform="translate(91 583)"><path d="M0 -106L91.8 -53L91.8 53L0 106L-91.8 53L-91.8 -53Z" fill="#297EA6"></path></g><g transform="translate(1486 213)"><path d="M0 -82L71 -41L71 41L0 82L-71 41L-71 -41Z" fill="#297EA6"></path></g></g></svg>