<svg id="visual" viewBox="0 0 960 540" width="960" height="540" xmlns="http://www.w3.org/2000/svg" xmlns:xlink="http://www.w3.org/1999/xlink" version="1.1"><rect x="0" y="0" width="960" height="540" fill="#ffffff"></rect><path d="M0 469L16 475C32 481 64 493 96 483.5C128 474 160 443 192 429.5C224 416 256 420 288 405.8C320 391.7 352 359.3 384 328C416 296.7 448 266.3 480 253C512 239.7 544 243.3 576 264.5C608 285.7 640 324.3 672 360.3C704 396.3 736 429.7 768 430.5C800 431.3 832 399.7 864 365C896 330.3 928 292.7 944 273.8L960 255L960 541L944 541C928 541 896 541 864 541C832 541 800 541 768 541C736 541 704 541 672 541C640 541 608 541 576 541C544 541 512 541 480 541C448 541 416 541 384 541C352 541 320 541 288 541C256 541 224 541 192 541C160 541 128 541 96 541C64 541 32 541 16 541L0 541Z" fill="#002233" stroke-linecap="round" stroke-linejoin="miter"></path></svg>