<svg id="visual" viewBox="0 0 900 600" width="900" height="600" xmlns="http://www.w3.org/2000/svg" xmlns:xlink="http://www.w3.org/1999/xlink" version="1.1"><rect x="0" y="0" width="900" height="600" fill="#f1f1f1"></rect><path d="M603 600L592.3 596.8C581.7 593.7 560.3 587.3 522.5 580.8C484.7 574.3 430.3 567.7 385.2 561.2C340 554.7 304 548.3 316 542C328 535.7 388 529.3 445.2 522.8C502.3 516.3 556.7 509.7 586.3 503.2C616 496.7 621 490.3 577.3 484C533.7 477.7 441.3 471.3 396.3 464.8C351.3 458.3 353.7 451.7 382 445.2C410.3 438.7 464.7 432.3 508.3 425.8C552 419.3 585 412.7 571.2 406.2C557.3 399.7 496.7 393.3 468.7 387C440.7 380.7 445.3 374.3 448.3 367.8C451.3 361.3 452.7 354.7 416.8 348.2C381 341.7 308 335.3 323.2 329C338.3 322.7 441.7 316.3 514 309.8C586.3 303.3 627.7 296.7 588.3 290.2C549 283.7 429 277.3 364.2 271C299.3 264.7 289.7 258.3 344.8 251.8C400 245.3 520 238.7 526.7 232.2C533.3 225.7 426.7 219.3 419.3 213C412 206.7 504 200.3 532.7 193.8C561.3 187.3 526.7 180.7 479.5 174.2C432.3 167.7 372.7 161.3 399.3 154.8C426 148.3 539 141.7 573.5 135.2C608 128.7 564 122.3 537.3 116C510.7 109.7 501.3 103.3 505.3 96.8C509.3 90.3 526.7 83.7 510 77.2C493.3 70.7 442.7 64.3 394.5 58C346.3 51.7 300.7 45.3 309 38.8C317.3 32.3 379.7 25.7 386.3 19.2C393 12.7 344 6.3 319.5 3.2L295 0L900 0L900 3.2C900 6.3 900 12.7 900 19.2C900 25.7 900 32.3 900 38.8C900 45.3 900 51.7 900 58C900 64.3 900 70.7 900 77.2C900 83.7 900 90.3 900 96.8C900 103.3 900 109.7 900 116C900 122.3 900 128.7 900 135.2C900 141.7 900 148.3 900 154.8C900 161.3 900 167.7 900 174.2C900 180.7 900 187.3 900 193.8C900 200.3 900 206.7 900 213C900 219.3 900 225.7 900 232.2C900 238.7 900 245.3 900 251.8C900 258.3 900 264.7 900 271C900 277.3 900 283.7 900 290.2C900 296.7 900 303.3 900 309.8C900 316.3 900 322.7 900 329C900 335.3 900 341.7 900 348.2C900 354.7 900 361.3 900 367.8C900 374.3 900 380.7 900 387C900 393.3 900 399.7 900 406.2C900 412.7 900 419.3 900 425.8C900 432.3 900 438.7 900 445.2C900 451.7 900 458.3 900 464.8C900 471.3 900 477.7 900 484C900 490.3 900 496.7 900 503.2C900 509.7 900 516.3 900 522.8C900 529.3 900 535.7 900 542C900 548.3 900 554.7 900 561.2C900 567.7 900 574.3 900 580.8C900 587.3 900 593.7 900 596.8L900 600Z" fill="#232323" stroke-linecap="round" stroke-linejoin="miter"></path></svg>