<svg id="visual" viewBox="0 0 900 600" width="900" height="600" xmlns="http://www.w3.org/2000/svg" xmlns:xlink="http://www.w3.org/1999/xlink" version="1.1"><rect x="0" y="0" width="900" height="600" fill="#232323"></rect><path d="M0 420L5.8 402.7C11.7 385.3 23.3 350.7 34.8 352.2C46.3 353.7 57.7 391.3 69.2 424C80.7 456.7 92.3 484.3 103.8 476.8C115.3 469.3 126.7 426.7 138.2 392.3C149.7 358 161.3 332 173 338.2C184.7 344.3 196.3 382.7 207.8 388.2C219.3 393.7 230.7 366.3 242.2 381.7C253.7 397 265.3 455 277 459.5C288.7 464 300.3 415 311.8 409.7C323.3 404.3 334.7 442.7 346.2 466C357.7 489.3 369.3 497.7 380.8 473.2C392.3 448.7 403.7 391.3 415.2 372.3C426.7 353.3 438.3 372.7 450 405.5C461.7 438.3 473.3 484.7 484.8 505C496.3 525.3 507.7 519.7 519.2 505C530.7 490.3 542.3 466.7 553.8 456.8C565.3 447 576.7 451 588.2 460.2C599.7 469.3 611.3 483.7 623 477C634.7 470.3 646.3 442.7 657.8 431.5C669.3 420.3 680.7 425.7 692.2 415C703.7 404.3 715.3 377.7 727 391C738.7 404.3 750.3 457.7 761.8 467.5C773.3 477.3 784.7 443.7 796.2 438.5C807.7 433.3 819.3 456.7 830.8 457.8C842.3 459 853.7 438 865.2 446.7C876.7 455.3 888.3 493.7 894.2 512.8L900 532L900 601L894.2 601C888.3 601 876.7 601 865.2 601C853.7 601 842.3 601 830.8 601C819.3 601 807.7 601 796.2 601C784.7 601 773.3 601 761.8 601C750.3 601 738.7 601 727 601C715.3 601 703.7 601 692.2 601C680.7 601 669.3 601 657.8 601C646.3 601 634.7 601 623 601C611.3 601 599.7 601 588.2 601C576.7 601 565.3 601 553.8 601C542.3 601 530.7 601 519.2 601C507.7 601 496.3 601 484.8 601C473.3 601 461.7 601 450 601C438.3 601 426.7 601 415.2 601C403.7 601 392.3 601 380.8 601C369.3 601 357.7 601 346.2 601C334.7 601 323.3 601 311.8 601C300.3 601 288.7 601 277 601C265.3 601 253.7 601 242.2 601C230.7 601 219.3 601 207.8 601C196.3 601 184.7 601 173 601C161.3 601 149.7 601 138.2 601C126.7 601 115.3 601 103.8 601C92.3 601 80.7 601 69.2 601C57.7 601 46.3 601 34.8 601C23.3 601 11.7 601 5.8 601L0 601Z" fill="#f1f1f1" stroke-linecap="round" stroke-linejoin="miter"></path></svg>