<?xml version="1.0" encoding="UTF-8" standalone="no" ?>
<!DOCTYPE svg PUBLIC "-//W3C//DTD SVG 1.1//EN" "http://www.w3.org/Graphics/SVG/1.1/DTD/svg11.dtd">
<svg xmlns="http://www.w3.org/2000/svg" xmlns:xlink="http://www.w3.org/1999/xlink" version="1.1" width="1080" height="1080" viewBox="0 0 1080 1080" xml:space="preserve">
<desc>Created with Fabric.js 5.2.4</desc>
<defs>
</defs>
<rect x="0" y="0" width="100%" height="100%" fill="transparent"></rect>
<g transform="matrix(1 0 0 1 540 540)" id="9789bfcd-79c7-483e-8387-eb07b6ec863b"  >
</g>
<g transform="matrix(1 0 0 1 540 540)" id="124f66f4-b2e3-4408-96c9-80e1ec93f653"  >
<rect style="stroke: none; stroke-width: 1; stroke-dasharray: none; stroke-linecap: butt; stroke-dashoffset: 0; stroke-linejoin: miter; stroke-miterlimit: 4; fill: rgb(255,255,255); fill-rule: nonzero; opacity: 1; visibility: hidden;" vector-effect="non-scaling-stroke"  x="-540" y="-540" rx="0" ry="0" width="1080" height="1080" />
</g>
<g transform="matrix(0 0 0 0 0 0)"  >
<g style=""   >
</g>
</g>
<g transform="matrix(1.31 0 0 1.31 537.25 536.37)"  >
<g style="" vector-effect="non-scaling-stroke"   >
		<g transform="matrix(1.56 0 0 1.56 -0.64 -0.64)"  >
<path style="stroke: none; stroke-width: 1; stroke-dasharray: none; stroke-linecap: butt; stroke-dashoffset: 0; stroke-linejoin: miter; stroke-miterlimit: 4; fill: rgb(0,0,0); fill-rule: nonzero; opacity: 1;" vector-effect="non-scaling-stroke"  transform=" translate(-256, -256)" d="M 491.878 156.348 C 472.437 110.39 439.989 71.33 399.14 43.731 C 358.307 16.131 308.964 -0.008 256 0 C 220.696 0 186.989 7.167 156.348 20.122 C 110.39 39.564 71.33 72.011 43.731 112.86 C 16.131 153.693 -0.008 203.036 0 256 C 0 291.304 7.167 325.02 20.122 355.653 C 39.564 401.61 72.011 440.66900000000004 112.86 468.269 C 153.692 495.869 203.036 512.009 256 512 C 291.305 512 325.02 504.834 355.653 491.878 C 401.61 472.436 440.67 439.989 468.27000000000004 399.14 C 495.87000000000006 358.308 512.01 308.964 512.0010000000001 256 C 512 220.697 504.842 186.98 491.878 156.348 z M 427.814 110.348 C 428.588 111.263 429.344 112.204 430.108 113.137 C 428.612 112.683 427.117 112.229 425.622 111.767 C 426.353 111.297 427.084 110.819 427.814 110.348 z M 382.832 101.182 C 387.142 100.754 380.446 101.434 382.832 101.182 C 381.034 101.056 379.673 100.324 378.766 99.005 C 384.579 95.217 388.747 100.585 382.832 101.182 z M 290.917 81.127 C 292.53 85.26899999999999 280.96099999999996 81.404 279.70099999999996 80.791 C 278.962 80.05199999999999 278.407 79.211 278.03799999999995 78.271 C 278.021 79.203 290.388 79.749 290.917 81.127 z M 258.79 75.406 C 261.613 76.364 272.812 73.834 273.173 77.128 C 273.846 83.177 269.183 77.186 268.217 77.186 C 265.59499999999997 77.186 269.42699999999996 79.96600000000001 269.527 80.10900000000001 C 268.871 79.15200000000002 261.066 79.25200000000001 259.41999999999996 79.647 C 254.656 88.352 241.675 69.592 258.79 75.406 z M 271.711 87.026 C 268.603 88.16799999999999 263.26800000000003 87.194 259.957 87.194 C 253.808 85.58 276.718 85.194 271.711 87.026 z M 79.236 313.19 C 79.06 315.812 79.346 311.544 79.236 313.19 C 79.278 312.527 80.36200000000001 307.435 81.32000000000001 307.141 C 82.83300000000001 306.68800000000005 85.933 314.14000000000004 85.807 315.182 C 85.11 321.206 78.892 318.148 79.236 313.19 z M 136.15 339.169 C 132.898 335.186 130.958 330.70799999999997 127.866 326.64099999999996 C 127.236 325.801 116.835 319.88699999999994 118.80799999999999 318.84499999999997 C 123.05099999999999 316.635 158.313 337.36199999999997 156.742 340.52099999999996 C 156.59 340.82399999999996 148.85299999999998 333.72399999999993 146.89499999999998 335.001 C 145.593 335.849 149.58399999999997 338.933 149.58399999999997 340.41999999999996 C 151.59999999999997 341.453 156.73299999999998 349.066 152.51599999999996 349.292 C 147.862 349.545 138.872 342.512 136.15 339.169 z M 154.894 340.546 C 155.104 341.916 151.24800000000002 339.361 151.02100000000002 339.269 C 151.777 337.884 154.718 339.412 154.894 340.546 z M 151.92 353.208 C 148.022 350.721 164.48899999999998 352.65400000000005 165.379 352.721 C 168.631 352.964 176.797 352.797 178.93099999999998 356.695 C 179.569 357.862 155.574 355.544 151.92 353.208 C 154.356 354.77 150.122 352.066 151.92 353.208 z M 188.686 317.644 C 192.811 313.443 197.525 320.879 197.86 320.576 C 195.264 322.94500000000005 191.37400000000002 327.516 196.608 330.247 C 200.54 332.305 191.936 333.784 191.936 334.515 C 191.936 337.481 187.16500000000002 345.31 184.122 346.529 C 184.299 346.462 172.209 343.11 171.15 342.807 C 168.512 342.043 167.705 334.725 166.092 332.38100000000003 C 166.093 328.036 184.51 321.895 188.686 317.644 z M 167.53 281.869 C 169.286 280.54100000000005 170.90800000000002 280.39000000000004 172.37800000000001 281.415 C 173.546 287.801 165.514 282.785 167.53 281.869 z M 195.718 306.864 C 195.72699999999998 306.847 195.73499999999999 306.839 195.75199999999998 306.83 C 195.819 306.77099999999996 195.85299999999998 306.746 195.844 306.75399999999996 C 196.894 305.89699999999993 199.65 303.45199999999994 200.742 303.20799999999997 C 203.716 302.529 193.676 308.502 195.718 306.864 z M 201.658 294.278 C 201.095 290.925 201.50699999999998 290.30400000000003 201.75099999999998 287.598 C 202.17899999999997 282.885 207.66599999999997 280.826 208.75799999999998 286.50600000000003 C 208.951 287.48100000000005 203.03699999999998 296.386 207.54 295.82300000000004 C 211.152 295.369 213.84099999999998 295.201 212.67399999999998 299.75500000000005 C 211.59799999999998 299.04100000000005 204.85999999999999 295.68000000000006 204.03699999999998 295.857 C 203.23899999999998 296.02500000000003 200.67699999999996 304.603 197.98799999999997 303.79600000000005 C 199.162 304.151 201.809 295.95 201.658 294.278 z M 200.734 269.073 C 200.818 267.745 202.776 263.948 204.91 264.385 C 207.371 264.89799999999997 204.179 274.526 202.423 273.417 C 201.163 272.224 200.6 270.77799999999996 200.734 269.082 C 200.7 269.678 200.608 271.199 200.734 269.073 z M 213.479 300.403 C 213.495 300.39500000000004 213.495 300.387 213.513 300.387 C 218.31 297.967 216.965 304.605 217.478 304.839 C 216.831 304.546 213.101 300.613 213.479 300.403 z M 218.184 308.04 C 217.26 307.889 219.276 308.217 218.184 308.04 C 219.70499999999998 308.28400000000005 220.453 311.40900000000005 220.60399999999998 312.418 C 221.225 316.661 221.14999999999998 314.829 218.344 315.938 C 217.579 316.23199999999997 218.428 318.685 216.672 318.803 C 215.832 318.853 211.236 317.895 212.724 316.131 C 215.815 312.46799999999996 207.06099999999998 315.316 207.06099999999998 314.99699999999996 C 207.06099999999998 313.77 208.44699999999997 310.92199999999997 210.24499999999998 311.29999999999995 C 215.504 312.384 215.58 307.62 218.184 308.04 z M 223.435 335.086 C 222.124 333.338 223.317 329.011 224.594 327.574 C 223.578 328.716 227.29999999999998 330.632 227.476 329.834 C 227.081 331.632 223.661 335.388 223.435 335.086 z M 230.03 343.202 C 229.954 342.463 223.989 342.614 223.082 342.472 C 221.51 342.471 229.593 338.766 230.03 343.202 z M 223.704 262.839 C 219.797 263.729 224.52 260.092 225.368 260.016 C 226.518 259.907 223.914 262.554 223.704 262.839 z M 222.393 355.989 C 223.922 359.92999999999995 213.89 360.661 212.487 360.99699999999996 C 213.563 360.73599999999993 219.771 358.40899999999993 220.385 356.73699999999997 C 220.494 356.426 221.612 353.964 222.393 355.989 z M 200.557 343.369 C 198.314 344.596 200.767 349.20000000000005 198.397 349.435 C 194.894 349.787 196.759 340.68 197.53099999999998 338.227 C 201.32899999999998 326.229 206.88299999999998 342.722 209.99999999999997 334.75699999999995 C 209.74799999999996 335.40399999999994 199.15299999999996 332.102 200.90899999999996 331.5559999999999 C 200.93399999999997 331.54799999999994 200.95999999999995 331.54799999999994 200.98499999999996 331.53899999999993 C 203.87499999999994 330.66599999999994 213.98199999999997 328.3549999999999 216.39299999999994 328.9429999999999 C 216.96399999999994 329.07699999999994 209.73099999999994 339.07499999999993 205.75699999999995 338.7729999999999 C 210.55499999999995 339.14199999999994 208.46199999999996 346.1919999999999 206.69799999999995 348.1239999999999 C 206.06799999999996 348.81299999999993 211.10899999999995 350.7699999999999 210.41999999999996 351.24099999999993 C 207.993 352.914 197.574 345 200.557 343.369 z M 206.497 356.938 C 207.09400000000002 357.241 203.76600000000002 357.96299999999997 203.33800000000002 358.04699999999997 C 201.961 358.517 200.65000000000003 358.45899999999995 199.40600000000003 357.871 C 198.465 357.115 205.691 356.535 206.497 356.938 z M 199.297 358.946 C 198.65 359.35 197.96099999999998 359.35 197.23 358.946 C 195.256 357.744 198.348 357.938 199.297 358.946 z M 205.548 300.05 C 205.548 300.05 205.548 300.05 205.53900000000002 300.05 C 205.514 300.02500000000003 205.48800000000003 300.00800000000004 205.46300000000002 299.992 C 205.48000000000002 300 205.497 300.017 205.52100000000002 300.033 C 205.286 299.874 202.841 298.219 204.681 298.02500000000003 C 207.278 297.757 205.582 300.076 205.548 300.05 z M 208.783 308.284 C 205.98499999999999 308.284 205.767 304.234 205.649 302.663 C 207.748 296.421 209.429 308.284 208.783 308.284 z M 209.975 358.132 C 210.715 357.745 218.183 355.729 217.679 356.519 C 217.208 357.267 208.841 361.123 208 359.443 C 208.228 358.527 208.883 358.09 209.975 358.132 z M 218.839 343.202 C 218.847 343.202 218.856 343.202 218.856 343.202 C 218.82999999999998 343.202 218.847 343.202 218.82999999999998 343.202 C 217.688 343.253 217.20799999999997 342.874 217.427 342.059 C 219.87199999999999 340.93300000000005 220.771 343.362 218.856 343.202 C 219.318 343.244 219.091 343.226 218.839 343.202 z M 209.707 304.738 C 209.614 304.696 209.647 304.713 209.698 304.73 C 208.404 304.218 209.589 301.336 210.782 302.612 C 211.177 303.041 210.454 305.016 209.707 304.738 z M 212.244 305.528 C 212.16 306.208 211.639 308.981 210.404 308.981 C 210.186 308.241 210.186 307.502 210.404 306.763 C 210.539 305.629 211.151 305.218 212.244 305.528 z M 202.355 305.184 L 202.355 305.184 C 201.77499999999998 306.35200000000003 194.575 315.02200000000005 193.516 310.36800000000005 C 193.542 310.486 201.884 306.142 202.355 305.184 z M 194.903 356.737 C 193.391 357.132 192.114 358.031 190.433 357.081 C 188.719 356.115 194.836 356.737 194.903 356.737 z M 187.451 356.325 C 186.459 356.325 187.005 355.669 187.719 355.586 C 188.442 355.502 188.35 356.325 187.451 356.325 z M 281.365 457.809 C 275.736 470.848 269.594 449.94500000000005 270.367 450.189 C 277.752 452.726 286.145 446.736 281.365 457.809 z M 293.849 421.691 C 291.9 427.412 290.03499999999997 433.419 286.506 438.53599999999994 C 281.642 445.5849999999999 277.945 441.8299999999999 271.44199999999995 441.7699999999999 C 267.71899999999994 441.73599999999993 268.59299999999996 444.6359999999999 264.52599999999995 443.04799999999994 C 262.24099999999993 442.14899999999994 259.12399999999997 441.45099999999996 257.08199999999994 440.13199999999995 C 259.60299999999995 441.76199999999994 252.68799999999993 430.7049999999999 253.31799999999993 434.72099999999995 C 252.97399999999993 432.554 250.49499999999992 433.63699999999994 248.4699999999999 433.24199999999996 C 249.5629999999999 431.85599999999994 249.51199999999992 429.705 250.62099999999992 428.32699999999994 C 247.8739999999999 428.25999999999993 245.52999999999992 429.46199999999993 243.80699999999993 431.6039999999999 C 236.06899999999993 422.04299999999995 228.87699999999992 421.15199999999993 216.43499999999995 424.27699999999993 C 213.55299999999994 424.99999999999994 207.83099999999996 429.6379999999999 206.22699999999995 429.6379999999999 C 199.68999999999994 429.6379999999999 198.18599999999995 429.3769999999999 193.31299999999996 433.2339999999999 C 189.96899999999997 435.87999999999994 181.60999999999996 434.0739999999999 180.63499999999996 429.6379999999999 C 180.18899999999996 427.6219999999999 183.85299999999995 424.8409999999999 183.86099999999996 422.74799999999993 C 183.86899999999997 421.42099999999994 180.02099999999996 420.15199999999993 179.55099999999996 418.80799999999994 C 178.82799999999995 416.69999999999993 180.55099999999996 414.21199999999993 178.76999999999995 412.4649999999999 C 178.02199999999996 411.7339999999999 174.64499999999995 409.31499999999994 174.52699999999996 408.31499999999994 C 174.37599999999995 406.9959999999999 177.40099999999995 405.58399999999995 177.40099999999995 403.9289999999999 C 177.40099999999995 401.5929999999999 177.40099999999995 399.2659999999999 177.40099999999995 396.9299999999999 C 177.40099999999995 391.6459999999999 191.69199999999995 390.4699999999999 197.36299999999994 387.8729999999999 C 203.99199999999993 384.8479999999999 199.12699999999995 382.96699999999987 203.24399999999994 379.44599999999986 C 204.47999999999993 378.39599999999984 208.77299999999994 380.45399999999984 210.06599999999995 379.44599999999986 C 210.80499999999995 378.87499999999983 209.84799999999996 376.08599999999984 210.84699999999995 374.96799999999985 C 212.25899999999996 373.40599999999984 218.64299999999994 366.85999999999984 219.13099999999994 373.0939999999998 C 219.41699999999994 376.7909999999998 219.06399999999994 376.4959999999998 223.12099999999995 376.4959999999998 C 226.38899999999995 376.4959999999998 222.94499999999996 374.8919999999998 224.42299999999994 373.54799999999983 C 226.66699999999994 371.4979999999998 229.42299999999994 364.90299999999985 232.32099999999994 364.0369999999998 C 234.01799999999994 363.52399999999983 242.50399999999993 367.3049999999998 245.23499999999993 367.3139999999998 C 244.28499999999994 370.0439999999998 243.36099999999993 372.7919999999998 242.36999999999992 375.5139999999998 C 246.63699999999992 377.6739999999998 254.62799999999993 384.3019999999998 259.5929999999999 381.4199999999998 C 261.9109999999999 380.0679999999998 262.8609999999999 368.4059999999998 263.5419999999999 365.6749999999998 C 266.4229999999999 370.12799999999976 271.3719999999999 373.4299999999998 273.0609999999999 377.76499999999976 C 275.63999999999993 384.36899999999974 279.9249999999999 384.59499999999974 283.7899999999999 389.99799999999976 C 287.3939999999999 395.0139999999998 290.6959999999999 399.86199999999974 293.6959999999999 405.1969999999998 C 297.757 412.423 296.564 413.717 293.849 421.691 z M 237.466 240.155 C 238.51600000000002 241.599 233.67700000000002 249.111 232.559 247.137 C 231.787 245.767 231.577 242.407 231.005 240.709 C 230.896 240.39000000000001 230.686 239.751 231.005 240.701 C 230.064 237.928 236.24 238.475 237.466 240.155 z M 267.989 202.381 C 271.97999999999996 202.373 272.157 207.506 276.59299999999996 206.153 C 275.727 206.41299999999998 279.07099999999997 209.774 274.43299999999994 210.63899999999998 C 271.51699999999994 211.16799999999998 267.46799999999996 214.36899999999997 264.26699999999994 212.26899999999998 C 264.69499999999994 212.55499999999998 264.48499999999996 212.42 264.2749999999999 212.28499999999997 C 266.2249999999999 213.59599999999998 260.8049999999999 214.69699999999997 260.6039999999999 213.17499999999995 C 260.604 213.202 270.182 202.372 267.989 202.381 z M 268.569 177.066 C 268.569 177.15800000000002 270.173 174.856 270.821 173.89000000000001 C 270.115 176.71400000000003 277.25600000000003 190.41600000000003 275.156 191.06300000000002 C 273.846 191.467 272.055 188.92900000000003 271.56 189.53400000000002 C 269.351 192.23100000000002 273.3 196.36400000000003 272.039 197.50700000000003 C 272.358 197.22100000000003 269.08099999999996 198.23000000000005 268.267 198.70000000000005 C 268.284 198.85200000000003 268.30899999999997 198.93600000000004 268.334 198.93600000000004 C 267.999 198.93600000000004 268.032 198.84300000000005 268.267 198.70000000000005 C 268.023 196.458 268.712 178.62 268.569 177.066 z M 291.959 363.442 C 284.272 365.055 274.475 349.562 270.073 356.392 C 266.92199999999997 361.282 253.219 354.191 252.664 356.30899999999997 C 253.446 353.31699999999995 258.50399999999996 355.376 255.243 351.015 C 252.438 347.259 248.892 347.469 244.346 346.81399999999996 C 241.095 346.34399999999994 241.994 344.361 240.574 342.546 C 239.70000000000002 341.429 238.74200000000002 344.504 237.88500000000002 344.185 C 237.76700000000002 344.14300000000003 233.037 337.203 233.037 336.976 C 238.901 329.288 240.531 339.74 243.808 341.076 C 250.42 343.773 250.512 336.346 256.906 339.27000000000004 C 260.157 340.75700000000006 284.606 349.68800000000005 283.783 351.76300000000003 C 283.355 352.259 282.834 352.63700000000006 282.212 352.88100000000003 C 283.382 354.77 291.144 363.618 291.959 363.442 z M 239.138 239.726 C 239.138 239.717 239.138 239.717 239.138 239.709 C 240.04500000000002 236.861 247.817 235.802 246.439 238.953 C 245.725 240.592 238.088 243.12 239.138 239.726 z M 261.218 221.948 C 261.226 221.77200000000002 264.344 210.882 265.94 213.798 C 267.69599999999997 217.016 266.89 233.231 263.066 235.567 C 262.075 235.483 261.714 234.97 261.98999999999995 234.029 C 261.98999999999995 236.079 248.66499999999996 239.079 248.84999999999997 239.263 C 246.77499999999998 237.112 250.19399999999996 235.835 245.09399999999997 236.322 C 245.16899999999995 236.322 233.78499999999997 237.809 237.34799999999996 235.776 C 241.14599999999996 233.608 244.42199999999997 233.062 248.87499999999994 232.978 C 252.52099999999993 232.911 252.19399999999993 227.702 254.81499999999994 227.467 C 256.0419999999999 227.358 255.35299999999995 230.836 257.56299999999993 229.00400000000002 C 260.478 226.586 260.881 225.46 261.218 221.948 z M 292.53 351.729 C 290.53 352.217 285.18699999999995 349.51099999999997 287.05199999999996 349.276 C 285.40599999999995 349.47700000000003 286.46399999999994 349.343 287.06899999999996 349.267 C 290.354 348.855 294.681 347.57 297.28599999999994 347.301 C 299.899 347.041 293.539 351.486 292.53 351.729 z M 299.706 347.142 C 299.19300000000004 346.604 298.798 346.008 298.546 345.336 C 296.354 341.832 303.705 348.604 299.706 347.142 z M 376.371 386.555 C 375.447 386.41200000000003 375.11899999999997 385.883 375.38 384.975 C 376.364 382.15200000000004 378.439 386.00800000000004 378.766 386.345 C 377.968 386.412 377.169 386.488 376.371 386.555 z M 379.958 381.53 C 379.093 381.53 381.882 378.488 383.54600000000005 380.135 C 385.26 381.824 380.295 381.446 379.958 381.53 z M 397.502 128.882 C 392.914 128.017 394.394 124.723 390.789 124.42 C 386.563 124.06700000000001 388.85699999999997 129.436 385.07599999999996 128.42000000000002 C 371.179 124.69000000000001 384.44599999999997 133.889 380.19399999999996 138.032 C 380.62199999999996 137.62 372.859 136.93900000000002 371.48199999999997 137.41 C 368.667 138.376 364.74399999999997 139.032 362.37399999999997 140.762 C 359.181 143.098 355.989 145.434 352.796 147.761 C 351.116 148.99699999999999 348.974 145.745 346.646 146.829 C 343.915 148.098 337.86600000000004 147.342 336.051 148.526 C 334.11 149.803 332.68199999999996 155.71800000000002 331.733 157.734 C 327.97700000000003 165.741 323.625 182.821 312.00600000000003 183.95600000000002 C 311.434 179.16600000000003 306.04900000000004 159.23800000000003 315.73600000000005 158.204 C 323.48300000000006 157.364 334.55600000000004 146.19 332.46400000000006 138.359 C 324.69300000000004 138.67000000000002 328.6170000000001 143.098 325.28100000000006 144.59400000000002 C 319.19700000000006 147.31600000000003 318.34100000000007 141.42600000000002 316.20700000000005 142.30800000000002 C 309.83000000000004 144.96300000000002 309.23300000000006 144.76200000000003 307.92300000000006 151.06300000000002 C 307.43600000000004 153.39900000000003 299.0760000000001 151.83700000000002 296.81600000000003 151.752 C 290.38000000000005 151.525 274.458 149.16400000000002 269.67800000000005 152.357 C 262.25100000000003 157.314 254.82400000000007 162.271 247.39600000000004 167.228 C 251.37800000000004 174.80700000000002 262.242 169.74 264.62000000000006 177.395 C 266.1910000000001 182.418 259.42800000000005 192.333 255.70600000000007 196.155 C 252.0420000000001 199.927 248.37100000000007 203.7 244.70000000000007 207.473 C 241.18800000000007 211.085 240.70900000000006 206.985 237.34800000000007 208.88400000000001 C 232.13000000000008 211.82500000000002 232.14700000000008 220.781 224.77800000000008 221.024 C 227.89500000000007 225.133 228.4590000000001 228.04 228.83600000000007 232.871 C 229.21400000000006 237.761 225.59300000000007 237.358 220.82900000000006 239.06300000000002 C 220.68600000000006 236.04700000000003 220.24100000000007 233.02300000000002 220.82900000000006 230.04000000000002 C 221.67800000000005 225.78000000000003 216.75500000000005 229.704 217.60300000000007 225.45200000000003 C 219.07300000000006 218.06700000000004 209.69700000000006 222.25100000000003 205.75700000000006 223.31800000000004 C 206.05900000000005 221.18400000000005 205.34500000000006 218.87400000000005 205.75700000000006 216.75700000000003 C 201.69000000000005 219.05100000000004 197.62500000000006 221.35200000000003 193.55800000000005 223.64600000000004 C 197.24600000000004 226.83100000000005 199.84200000000004 230.92200000000005 205.39600000000004 228.23300000000003 C 205.96700000000004 232.30800000000002 202.27000000000004 232.77000000000004 198.58200000000005 234.79500000000004 C 203.72400000000005 237.79500000000004 204.01800000000006 244.62500000000006 205.53000000000006 249.57400000000004 C 207.46200000000005 255.85900000000004 203.27800000000005 257.98400000000004 198.88500000000005 263.13500000000005 C 194.21300000000005 268.61300000000006 193.23000000000005 270.1170000000001 186.13900000000004 272.06600000000003 C 182.20700000000005 273.158 178.27500000000003 274.242 174.34300000000005 275.326 C 172.34300000000005 275.88 174.02400000000006 278.754 170.22600000000006 278.754 C 169.24400000000006 272.024 161.37900000000005 277.368 158.96800000000005 280.266 C 155.38900000000004 284.55 162.12700000000004 287.752 165.72400000000005 291.264 C 175.37700000000004 300.7 161.85000000000005 306.387 154.79300000000003 311.226 C 152.23000000000005 304.454 144.55900000000003 302.556 142.58500000000004 297.12 C 139.89600000000004 306.958 139.30000000000004 307.194 146.61800000000002 314.688 C 151.95300000000003 320.157 152.67600000000002 324.484 154.79300000000003 331.558 C 150.48300000000003 329.592 145.41600000000003 328.651 143.72000000000003 324.416 C 141.64400000000003 319.249 140.09900000000002 316.368 136.25000000000003 312.149 C 132.28500000000003 307.797 132.11600000000004 294.89300000000003 130.02500000000003 288.918 C 128.47000000000003 290.086 125.82400000000004 290.036 124.27800000000003 291.212 C 123.11800000000004 286.776 120.06100000000004 274.299 114.59100000000004 272.518 C 110.13800000000003 271.065 100.35000000000004 277.164 96.77100000000004 279.78499999999997 C 92.05000000000004 283.255 81.29500000000004 288.01099999999997 81.13500000000005 293.87499999999994 C 80.86700000000005 304.1089999999999 80.59700000000005 304.87299999999993 72.23800000000004 311.55199999999996 C 64.23100000000004 299.88199999999995 60.13000000000004 290.313 57.87900000000004 276.777 C 50.21700000000004 280.532 46.00700000000004 270.199 41.37000000000004 265.95599999999996 C 39.21900000000004 263.99899999999997 35.210000000000036 263.80499999999995 30.90900000000004 263.98999999999995 C 30.817000000000043 261.335 30.759000000000043 258.67199999999997 30.759000000000043 255.99999999999994 C 30.759000000000043 224.85499999999993 37.060000000000045 195.27199999999993 48.453000000000046 168.32799999999995 C 64.57600000000005 130.19299999999996 90.95700000000005 97.39199999999994 124.10200000000005 73.40599999999995 C 126.24400000000004 73.35599999999995 128.35300000000004 73.69199999999995 130.42800000000005 74.69999999999995 C 134.45300000000006 76.66599999999994 139.79600000000005 69.72599999999994 145.82000000000005 71.77599999999994 C 143.67800000000005 63.02999999999994 164.48800000000006 62.60199999999994 159.81700000000006 72.10399999999994 C 164.35400000000007 70.76799999999994 168.30300000000005 68.91999999999994 173.02500000000006 69.61699999999995 C 180.77100000000007 70.74299999999995 178.60300000000007 72.01999999999995 177.55400000000006 78.98499999999994 C 177.51200000000006 79.24599999999994 153.36500000000007 87.82299999999994 161.74200000000005 88.99899999999994 C 169.85000000000005 90.14199999999994 176.87400000000005 84.67199999999994 185.28400000000005 85.28599999999994 C 194.97100000000006 85.98399999999994 199.28900000000004 90.17599999999995 209.70800000000006 90.46999999999994 C 205.54900000000006 80.47999999999995 222.43600000000006 87.68099999999994 227.65400000000005 88.83199999999994 C 221.87400000000005 93.57999999999994 233.39200000000005 98.98999999999994 237.35000000000005 102.28399999999993 C 237.20700000000005 94.98299999999993 252.22100000000006 96.31099999999994 258.95000000000005 96.65499999999993 C 262.65600000000006 96.84899999999993 260.93300000000005 90.01699999999992 265.52000000000004 90.81599999999993 C 271.74600000000004 91.89999999999993 277.963 92.98299999999993 284.18800000000005 94.06699999999994 C 289.44000000000005 94.98299999999993 292.20300000000003 93.72299999999994 297.33600000000007 96.46999999999994 C 300.84800000000007 98.35199999999995 298.47900000000004 102.86399999999995 303.28400000000005 102.35199999999995 C 306.70400000000006 101.98999999999995 314.8790000000001 99.54599999999995 317.33200000000005 101.98999999999995 C 320.987 105.62799999999996 318.92900000000003 109.80399999999995 324.92800000000005 111.79499999999996 C 326.28000000000003 105.13199999999996 337.79900000000004 105.18299999999996 343.5880000000001 106.87099999999995 C 346.2680000000001 107.66099999999996 358.56000000000006 117.41499999999995 353.9980000000001 105.55999999999995 C 364.8690000000001 107.76999999999994 375.7320000000001 109.97099999999995 386.6040000000001 112.18099999999994 C 390.8640000000001 113.04699999999994 390.9560000000001 116.37299999999993 394.5600000000001 118.02899999999994 C 396.9040000000001 119.10499999999993 403.4160000000001 118.77699999999994 406.7600000000001 119.99499999999993 C 413.851 126.9 403.425 130.008 397.502 128.882 z M 406.693 134.654 C 406.86899999999997 134.066 407.055 133.478 407.239 132.89 C 408.66799999999995 131.47799999999998 416.859 131.344 418.053 133.31799999999998 C 419.136 135.108 407.441 135.293 406.693 134.654 z M 437.107 168.185 C 442.081 163.321 447.004 158.431 452.18800000000005 153.76 C 442.03900000000004 154.273 439.72 156.69199999999998 437.83000000000004 147.19799999999998 C 435.67900000000003 148.50799999999998 433.52000000000004 149.819 431.369 151.12999999999997 C 428.73100000000005 147.20699999999997 422.531 141.57799999999997 428.495 137.35199999999998 C 430.277 136.09999999999997 434.503 137.83899999999997 436.39300000000003 136.69599999999997 C 438.225 135.59599999999998 439.68600000000004 130.68799999999996 440.70300000000003 128.82299999999998 C 435.52700000000004 126.98299999999998 435.39300000000003 131.546 431.369 131.45299999999997 C 427.48800000000006 131.36099999999996 422.11100000000005 128.15999999999997 418.447 126.85699999999997 C 421.824 119.86699999999998 429.932 120.95099999999996 435.46 119.91799999999998 C 437.981 123.23599999999998 440.442 126.60499999999998 442.786 130.07599999999996 C 449.196 139.56999999999996 454.876 149.58399999999997 459.808 160.01899999999998 C 453.406 164.791 445.156 170.715 437.107 168.185 z M 453.18 278.096 C 452.129 278.29 451.507 276.349 452.944 276.349 C 454.381 276.349 454.381 277.878 453.18 278.096 z M 457.011 283.785 C 456.541 283.20500000000004 456.78400000000005 283.507 457.00300000000004 283.76800000000003 C 454.76000000000005 281.02900000000005 455.34000000000003 277.559 459.40600000000006 279.41600000000005 C 461.498 280.356 458.43 285.499 457.011 283.785 z" stroke-linecap="round" />
</g>
		<g transform="matrix(1.56 0 0 1.56 -39.02 -23.78)"  >
<path style="stroke: none; stroke-width: 1; stroke-dasharray: none; stroke-linecap: butt; stroke-dashoffset: 0; stroke-linejoin: miter; stroke-miterlimit: 4; fill: rgb(0,0,0); fill-rule: nonzero; opacity: 1;" vector-effect="non-scaling-stroke"  transform=" translate(-231.03, -240.78)" d="M 231.005 240.701 L 231.005 240.709 C 231.055 240.86 231.089 240.945 231.005 240.701 z" stroke-linecap="round" />
</g>
		<g transform="matrix(1.56 0 0 1.56 48.79 145.71)"  >
<path style="stroke: none; stroke-width: 1; stroke-dasharray: none; stroke-linecap: butt; stroke-dashoffset: 0; stroke-linejoin: miter; stroke-miterlimit: 4; fill: rgb(0,0,0); fill-rule: nonzero; opacity: 1;" vector-effect="non-scaling-stroke"  transform=" translate(-287.23, -349.25)" d="M 287.07 349.268 C 287.062 349.268 287.062 349.277 287.053 349.277 C 287.608 349.2 287.414 349.226 287.07 349.268 z" stroke-linecap="round" />
</g>
</g>
</g>
<g transform="matrix(11.83 0 0 11.83 540 540)"  >
<path style="stroke: rgb(255,255,255); stroke-width: 0; stroke-dasharray: none; stroke-linecap: butt; stroke-dashoffset: 0; stroke-linejoin: miter; stroke-miterlimit: 4; fill: rgb(255,255,255); fill-rule: nonzero; opacity: 1;" vector-effect="non-scaling-stroke"  transform=" translate(-50, -50)" d="M 50 92.875 C 26.358 92.875 7.125 73.642 7.125 50 C 7.125 26.358000000000004 26.358 7.125 50 7.125 C 73.642 7.125 92.875 26.358 92.875 50 C 92.875 73.642 73.642 92.875 50 92.875 z M 50 9.125 C 27.461 9.125 9.125 27.461 9.125 50 C 9.125 72.538 27.461 90.875 50 90.875 C 72.538 90.875 90.875 72.538 90.875 50 C 90.875 27.461 72.538 9.125 50 9.125 z" stroke-linecap="round" />
</g>
<g transform="matrix(-23.45 13.84 -13.84 -23.45 735 421.12)"  >
<path style="stroke: rgb(255,255,255); stroke-width: 14; stroke-dasharray: none; stroke-linecap: butt; stroke-dashoffset: 0; stroke-linejoin: miter; stroke-miterlimit: 4; fill: rgb(0,0,0); fill-rule: nonzero; opacity: 1;" vector-effect="non-scaling-stroke"  transform=" translate(-12, -12)" d="M 8.974 18 L 8.974 18 C 8.397826012778335 17.956640050566357 7.90277514938351 17.5744403371273 7.715 17.028 L 5.872 12.883 C 5.757 12.623 5.609999999999999 12.504999999999999 5.523 12.504999999999999 L 2.562 12.504999999999999 C 2.285857625084603 12.504999999999999 2.062 12.281142374915396 2.062 12.004999999999999 C 2.062 11.728857625084602 2.285857625084603 11.504999999999999 2.562 11.504999999999999 L 5.523 11.504999999999999 C 6.10086728627545 11.546302333716435 6.598104917495371 11.92897452496407 6.786 12.476999999999999 L 8.625 16.622 C 8.741 16.883 8.883 17 8.974 17 L 8.974 17 C 9.062 17 9.203 16.887 9.318 16.632 L 13.7 6.956 C 13.88764428091233 6.412416974983489 14.384019508913292 6.035203367694999 14.958 6 L 14.958 6 C 15.53501632344595 6.044227349794613 16.030384019906688 6.427547591103517 16.218 6.975 L 18.057 11.126 C 18.166999999999998 11.375 18.316 11.504999999999999 18.406 11.504999999999999 L 21.433999999999997 11.504999999999999 C 21.710142374915396 11.504999999999999 21.933999999999997 11.728857625084602 21.933999999999997 12.004999999999999 C 21.933999999999997 12.281142374915396 21.710142374915396 12.504999999999999 21.433999999999997 12.504999999999999 L 18.41 12.504999999999999 C 17.831366454571686 12.463218649349866 17.33391849354395 12.079203002475724 17.147 11.53 L 15.308 7.379 C 15.192 7.117999999999999 15.049 7.0009999999999994 14.958 7 L 14.958 7 C 14.870000000000001 7 14.729000000000001 7.114 14.614 7.368 L 10.229000000000001 17.044 C 10.038635233975882 17.584345600468136 9.545499409538934 17.959993288246398 8.974 18 Z" stroke-linecap="round" />
</g>
<g transform="matrix(-23.43 13.83 -13.83 -23.43 -192.01 113.78)"  >
<path style="stroke: rgb(255,255,255); stroke-width: 0; stroke-dasharray: none; stroke-linecap: butt; stroke-dashoffset: 0; stroke-linejoin: miter; stroke-miterlimit: 4; fill: rgb(255,255,255); fill-rule: nonzero; opacity: 1;" vector-effect="non-scaling-stroke"  transform=" translate(-12, -12)" d="M 8.974 18 L 8.974 18 C 8.397826012778335 17.956640050566357 7.90277514938351 17.5744403371273 7.715 17.028 L 5.872 12.883 C 5.757 12.623 5.609999999999999 12.504999999999999 5.523 12.504999999999999 L 2.562 12.504999999999999 C 2.285857625084603 12.504999999999999 2.062 12.281142374915396 2.062 12.004999999999999 C 2.062 11.728857625084602 2.285857625084603 11.504999999999999 2.562 11.504999999999999 L 5.523 11.504999999999999 C 6.10086728627545 11.546302333716435 6.598104917495371 11.92897452496407 6.786 12.476999999999999 L 8.625 16.622 C 8.741 16.883 8.883 17 8.974 17 L 8.974 17 C 9.062 17 9.203 16.887 9.318 16.632 L 13.7 6.956 C 13.88764428091233 6.412416974983489 14.384019508913292 6.035203367694999 14.958 6 L 14.958 6 C 15.53501632344595 6.044227349794613 16.030384019906688 6.427547591103517 16.218 6.975 L 18.057 11.126 C 18.166999999999998 11.375 18.316 11.504999999999999 18.406 11.504999999999999 L 21.433999999999997 11.504999999999999 C 21.710142374915396 11.504999999999999 21.933999999999997 11.728857625084602 21.933999999999997 12.004999999999999 C 21.933999999999997 12.281142374915396 21.710142374915396 12.504999999999999 21.433999999999997 12.504999999999999 L 18.41 12.504999999999999 C 17.831366454571686 12.463218649349866 17.33391849354395 12.079203002475724 17.147 11.53 L 15.308 7.379 C 15.192 7.117999999999999 15.049 7.0009999999999994 14.958 7 L 14.958 7 C 14.870000000000001 7 14.729000000000001 7.114 14.614 7.368 L 10.229000000000001 17.044 C 10.038635233975882 17.584345600468136 9.545499409538934 17.959993288246398 8.974 18 Z" stroke-linecap="round" />
</g>
<g transform="matrix(-23.45 13.84 -13.84 -23.45 350.68 648.82)"  >
<path style="stroke: rgb(255,255,255); stroke-width: 14; stroke-dasharray: none; stroke-linecap: butt; stroke-dashoffset: 0; stroke-linejoin: miter; stroke-miterlimit: 4; fill: rgb(0,0,0); fill-rule: nonzero; opacity: 1;" vector-effect="non-scaling-stroke"  transform=" translate(-12, -12)" d="M 8.974 18 L 8.974 18 C 8.397826012778335 17.956640050566357 7.90277514938351 17.5744403371273 7.715 17.028 L 5.872 12.883 C 5.757 12.623 5.609999999999999 12.504999999999999 5.523 12.504999999999999 L 2.562 12.504999999999999 C 2.285857625084603 12.504999999999999 2.062 12.281142374915396 2.062 12.004999999999999 C 2.062 11.728857625084602 2.285857625084603 11.504999999999999 2.562 11.504999999999999 L 5.523 11.504999999999999 C 6.10086728627545 11.546302333716435 6.598104917495371 11.92897452496407 6.786 12.476999999999999 L 8.625 16.622 C 8.741 16.883 8.883 17 8.974 17 L 8.974 17 C 9.062 17 9.203 16.887 9.318 16.632 L 13.7 6.956 C 13.88764428091233 6.412416974983489 14.384019508913292 6.035203367694999 14.958 6 L 14.958 6 C 15.53501632344595 6.044227349794613 16.030384019906688 6.427547591103517 16.218 6.975 L 18.057 11.126 C 18.166999999999998 11.375 18.316 11.504999999999999 18.406 11.504999999999999 L 21.433999999999997 11.504999999999999 C 21.710142374915396 11.504999999999999 21.933999999999997 11.728857625084602 21.933999999999997 12.004999999999999 C 21.933999999999997 12.281142374915396 21.710142374915396 12.504999999999999 21.433999999999997 12.504999999999999 L 18.41 12.504999999999999 C 17.831366454571686 12.463218649349866 17.33391849354395 12.079203002475724 17.147 11.53 L 15.308 7.379 C 15.192 7.117999999999999 15.049 7.0009999999999994 14.958 7 L 14.958 7 C 14.870000000000001 7 14.729000000000001 7.114 14.614 7.368 L 10.229000000000001 17.044 C 10.038635233975882 17.584345600468136 9.545499409538934 17.959993288246398 8.974 18 Z" stroke-linecap="round" />
</g>
<g transform="matrix(0.42 -0.25 0.29 0.49 575.08 516.47)"  >
<path style="stroke: rgb(0,0,0); stroke-width: 0; stroke-dasharray: none; stroke-linecap: butt; stroke-dashoffset: 0; stroke-linejoin: miter; stroke-miterlimit: 4; fill: rgb(0,0,0); fill-rule: nonzero; opacity: 1;" vector-effect="non-scaling-stroke"  transform=" translate(-50, -50)" d="M 94.75 50 C 94.75 56.213 89.514 61.25 83.054 61.25 L 16.946 61.25 C 10.486 61.25 5.25 56.213 5.25 50 L 5.25 50 C 5.25 43.787 10.486 38.75 16.945999999999998 38.75 L 83.053 38.75 C 89.514 38.75 94.75 43.787 94.75 50 L 94.75 50 z" stroke-linecap="round" />
</g>
</svg>